<svg width="33" height="37" viewBox="0 0 33 37" fill="none" xmlns="http://www.w3.org/2000/svg">
<path d="M21.3447 17.2029C17.2018 21.1812 11.0285 27.2448 11.0285 27.2448C11.0285 27.2448 12.3344 29.1283 16.653 28.5069C20.4668 27.9581 23.814 24.8852 23.814 24.8852C21.0424 25.1241 19.7355 24.8142 18.2444 23.239C18.2444 23.239 21.0306 24.5072 23.9512 23.0469C29.274 20.3856 31.7159 13.4715 31.7159 13.4715C27.6698 17.3538 25.6219 18.2603 22.1953 18.5747C22.1953 18.5747 26.0369 16.8001 28.1491 15.1451C30.2612 13.4902 32.2646 11.1119 32.2646 11.1119C33.0095 8.09278 33.4951 6.41784 31.5238 2.68881C31.5238 2.68881 30.5781 6.43287 29.274 8.47798C26.8595 12.2643 24.7195 13.9623 21.3447 17.2029Z" fill="#F4F4F4"/>
<path d="M17.1469 15.8859C8.64148 20.8794 9.8487 25.7632 9.8487 25.7632C14.1929 21.9586 19.1977 17.4835 22.9361 14.2672C29.027 9.02672 29.8501 5.18556 30.7281 1.45415L29.0545 0C29.0545 0 29.0819 1.59134 29.0545 1.89314C29.0246 2.22217 29.1642 5.07721 25.5974 9.13647C24.02 10.9318 20.9057 13.252 18.6285 14.8982C18.6285 14.9805 18.1904 16.6086 17.6133 17.5596C17.0852 18.4299 15.9122 19.535 15.9122 19.535C15.9122 19.535 17.3115 16.8188 17.1469 15.8859Z" fill="#F4F4F4"/>
<path fill-rule="evenodd" clip-rule="evenodd" d="M0.096203 36.2514L0.381697 36.5409C0.498278 36.6591 0.684548 36.6728 0.820555 36.5776C1.24392 36.2813 2.16019 35.6881 2.90283 35.5415C3.91347 35.3421 4.6042 35.3234 5.00009 35.3416C5.21015 35.3512 5.41369 35.1854 5.43857 34.9766C5.5299 34.2101 5.88252 32.4762 7.24294 30.76L9.70427 28.3324C9.83374 28.2048 9.83518 27.9963 9.70749 27.8668L8.8983 27.0464C8.77062 26.9169 8.56216 26.9155 8.4327 27.0432L5.97137 29.4707C4.23655 30.8073 2.49786 31.1359 1.7302 31.2166C1.52107 31.2386 1.35253 31.4399 1.35924 31.65C1.37189 32.0461 1.34373 32.7366 1.13033 33.7443C0.973517 34.4849 0.367711 35.3929 0.065559 35.8121C-0.0315063 35.9468 -0.0203728 36.1332 0.096203 36.2514ZM2.81749 33.853C3.15798 34.1982 3.71387 34.2021 4.05911 33.8616C4.40434 33.5211 4.40818 32.9652 4.06769 32.62C3.72719 32.2747 3.1713 32.2709 2.82607 32.6114C2.48083 32.9519 2.47699 33.5078 2.81749 33.853Z" fill="#F4F4F4"/>
</svg>
