<svg width="65" height="65" viewBox="0 0 65 65" fill="none" xmlns="http://www.w3.org/2000/svg">
<path d="M62.9963 54.7477L47.6887 39.4387C50.0751 35.5215 51.3338 31.0216 51.3263 26.4347C51.3263 12.5921 39.3322 0.600952 25.4909 0.600952C22.2002 0.60042 18.9415 1.24825 15.9012 2.50745C12.8608 3.76664 10.0983 5.61252 7.77136 7.93966C5.44444 10.2668 3.59873 13.0296 2.33966 16.0703C1.08059 19.1109 0.432818 22.3699 0.43335 25.6609C0.43335 39.4994 12.4275 51.4947 26.2646 51.4947C30.6999 51.4987 35.0559 50.3183 38.8825 48.0756L54.2711 63.4737C54.9948 64.1956 55.9751 64.601 56.9972 64.601C58.0193 64.601 58.9997 64.1956 59.7233 63.4737L63.5431 59.6535C65.046 58.1506 64.4991 56.2506 62.9963 54.7477ZM8.14587 25.6609C8.14534 23.3826 8.59359 21.1265 9.46502 19.0214C10.3365 16.9163 11.614 15.0036 13.2247 13.3923C14.8354 11.7811 16.7477 10.503 18.8523 9.63099C20.957 8.75898 23.2128 8.31016 25.4909 8.31016C35.0749 8.31016 43.6137 16.8458 43.6137 26.4347C43.6127 31.0361 41.7845 35.4487 38.5311 38.7024C35.2778 41.956 30.8656 43.7844 26.2646 43.7855C16.6807 43.7814 8.14587 35.2417 8.14587 25.6609Z" fill="#989898"/>
</svg>
