<svg className="CopyIconUp" width="11" height="11" viewBox="0 0 11 11" fill="none" xmlns="http://www.w3.org/2000/svg">
<path fill-rule="evenodd" clip-rule="evenodd" d="M0 1.75C0 0.783502 0.783502 0 1.75 0H9.25C10.2165 0 11 0.783502 11 1.75V9.25C11 10.2165 10.2165 11 9.25 11H1.75C0.783502 11 0 10.2165 0 9.25V1.75ZM1.75 1.5C1.61193 1.5 1.5 1.61193 1.5 1.75V9.25C1.5 9.38807 1.61193 9.5 1.75 9.5H9.25C9.38807 9.5 9.5 9.38807 9.5 9.25V1.75C9.5 1.61193 9.38807 1.5 9.25 1.5H1.75Z" fill="#303030"/>
</svg>
