<svg width="70" height="70" viewBox="0 0 70 70" fill="none" xmlns="http://www.w3.org/2000/svg">
<path d="M35 67H67M45.6667 10.9296L56.3333 22.1436M51 5.32251C52.4145 3.83543 54.3329 3 56.3333 3C57.3238 3 58.3046 3.2051 59.2197 3.6036C60.1348 4.0021 60.9663 4.58619 61.6667 5.32251C62.3671 6.05884 62.9226 6.93299 63.3017 7.89505C63.6807 8.8571 63.8758 9.88823 63.8758 10.9296C63.8758 11.9709 63.6807 13.002 63.3017 13.9641C62.9226 14.9261 62.3671 15.8003 61.6667 16.5366L17.2222 63.262L3 67L6.55556 52.0479L51 5.32251Z" stroke="#989898" stroke-width="6" stroke-linecap="round" stroke-linejoin="round"/>
</svg>
