<svg width="200" height="200" viewBox="0 0 200 200" fill="none" xmlns="http://www.w3.org/2000/svg">
<path d="M199.604 127.596C193.268 148.283 180.571 166.444 163.319 179.495C148.173 190.897 130.149 197.851 111.27 199.577C92.3916 201.302 73.4059 197.731 56.4441 189.263C39.4822 180.796 25.2154 167.767 15.2452 151.64C5.27497 135.513 -0.00411107 116.926 0.000479949 97.9642C-0.0676793 75.8323 7.12554 54.2892 20.4766 36.6399C33.5246 19.3842 51.6814 6.68437 72.3632 0.347474C73.7263 -0.0723376 75.178 -0.112538 76.5623 0.231198C77.9465 0.574933 79.2109 1.2896 80.2194 2.29833C81.2279 3.30707 81.9424 4.57171 82.2861 5.95625C82.6297 7.34078 82.5895 8.79283 82.1698 10.1562C77.6474 25.1188 77.2682 41.0282 81.0727 56.1893C84.8771 71.3504 92.7226 85.1951 103.773 96.2482C114.824 107.301 128.665 115.148 143.823 118.954C158.981 122.759 174.887 122.38 189.846 117.856C191.209 117.437 192.661 117.396 194.045 117.74C195.429 118.084 196.694 118.798 197.702 119.807C198.711 120.816 199.425 122.081 199.769 123.465C200.113 124.85 200.072 126.302 199.653 127.665L199.604 127.596Z" fill="#E3E3E3"/>
</svg>
